PathFileType	4	(X/Y/Z)	Patient4_TMGait_0pt5_01_left_21.trc.trc
DataRate	CameraRate	NumFrames	NumMarkers	Units	OrigDataRate	OrigDataStartFrame	OrigNumFrames
74.468085106383	74.468085106383	4	33	mm	74.468085106383	71	       141
Frame#	Time	L.ASIS			Sacral			L.Shoulder			Chest			R.Shoulder			Neck			R.ASIS			R.Thigh.Superior			R.Thigh.Lateral			R.Thigh.Inferior			R.Patella			L.Thigh.Superior			L.Thigh.Lateral			L.Thigh.Inferior			L.Patella			L.Shank.Superior			L.Shank.Lateral			L.Shank.Inferior			R.Shank.Superior			R.Shank.Lateral			R.Shank.Inferior			R.Heel			R.Midfoot.Superior			R.Midfoot.Lateral			R.Toe			L.Heel			L.Midfoot.Lateral			L.Midfoot.Superior			L.Toe			L.Elbow			L.Wrist			R.Elbow			R.Wrist			
		X1	Y1	Z1	X2	Y2	Z2	X3	Y3	Z3	X4	Y4	Z4	X5	Y5	Z5	X6	Y6	Z6	X7	Y7	Z7	X8	Y8	Z8	X9	Y9	Z9	X10	Y10	Z10	X11	Y11	Z11	X12	Y12	Z12	X13	Y13	Z13	X14	Y14	Z14	X15	Y15	Z15	X16	Y16	Z16	X17	Y17	Z17	X18	Y18	Z18	X19	Y19	Z19	X20	Y20	Z20	X21	Y21	Z21	X22	Y22	Z22	X23	Y23	Z23	X24	Y24	Z24	X25	Y25	Z25	X26	Y26	Z26	X27	Y27	Z27	X28	Y28	Z28	X29	Y29	Z29	X30	Y30	Z30	X31	Y31	Z31	X32	Y32	Z32	X33	Y33	Z33	

71	29.020000000000	933.611771682835	956.870523620932	298.355407547112	709.660845928168	1003.108554303373	439.518099247647	899.947997062917	1433.612769057115	279.950262907520	988.648376786009	1360.244218467867	447.573115316278	890.414642583211	1430.894468848631	615.948817653829	886.858861307565	1491.342544815182	431.453660586292	926.368219682630	935.944071801253	573.070761138840	995.034218170680	758.056002030934	548.904801923801	940.457991061937	638.094950418984	618.069011986149	1030.727668896116	597.446688288626	541.292919653545	1060.213679227389	514.488886276447	555.066888426924	932.723333018911	728.821242707062	327.109028497291	816.602431024611	636.465351291119	263.130264512242	872.845594055463	542.909985416969	329.904616645895	858.581481626832	477.003214757462	339.768998193740	826.644724095736	412.705606671132	332.612053362182	730.463708455063	304.012532712978	282.959388641746	771.847286983241	191.591292224228	358.649976308187	1044.569663552474	426.992988598515	563.213305146362	990.053992641383	312.984757541182	624.131210683844	1059.369788273777	227.004430231154	572.558322687101	964.868819150619	41.176966963257	542.910500618444	1126.300086354959	115.796876107484	582.370135138092	1048.533536666872	40.226111869592	616.611379492137	1251.102660419641	80.284884095096	611.315274750287	634.740295774624	38.889267765020	403.677444861959	708.427125422734	35.179193871101	323.043056881803	792.420804935367	95.478638342520	349.020870389472	920.183598344506	42.169606499851	321.021203115605	955.014825685781	1105.985194004676	119.022482839978	1204.362507960558	1049.517576433794	148.957361258147	762.913285942522	1106.088127866226	716.520011129673	741.122009100685	845.803777831368	712.106217509913	
72	29.033428571429	935.659334861825	955.698798941675	300.396452550534	711.663695594921	1001.343883632571	441.370457940932	900.782002308990	1432.407845913379	282.376996336429	989.340662465663	1359.249492272612	450.178242795202	890.506546292945	1429.667175386031	618.342514852373	887.236528491483	1490.052982079009	433.870616273114	928.375460283068	934.452033925030	575.070158537873	996.621619199808	755.929276981385	550.723665599532	940.402555633403	635.820045615861	618.699095291619	1030.976386668088	595.353453562677	542.387552779910	1059.574508498543	512.758490906741	555.293345218686	932.962836808263	727.257517890843	328.801370885413	816.009016795722	635.840411150048	264.323243933373	871.086339853184	541.633454713892	331.266451347146	856.440497608098	475.602442505602	340.895627801742	823.509402007875	411.760548348150	333.575996718187	726.220791154092	304.176391829147	283.471506937328	766.186727792901	191.170111787231	358.987153865057	1044.627062253857	424.911882510449	563.450968775088	990.415007458498	310.459251896102	623.590419397895	1060.343014299156	225.055065520157	572.037507706306	966.234614226756	40.426117072004	541.843944051005	1128.220187339780	113.665309091755	581.392037402724	1049.615707663146	39.394937174144	615.831296959938	1252.451474487329	76.982652370997	610.605516819846	627.954610933663	38.988275788739	403.554088272883	701.711909201594	35.185738287179	323.027304602918	785.722949518505	95.476810181707	349.051529886888	913.470325693642	41.952869490611	321.030543298916	957.175484325314	1104.947385081417	121.615246750132	1207.359524454955	1053.029108464027	151.554892950135	757.333752327838	1107.548717057773	717.963183200502	731.773590281714	847.689390756188	713.940829974483	
73	29.046857142857	937.828945878352	954.572306614621	302.628649035733	713.661560311839	999.628242229895	443.426666029213	901.625491891940	1431.223637842988	284.945674003815	990.065632594606	1358.321882890593	452.944628363568	890.588474909929	1428.470332605101	620.899082849528	887.653487919000	1488.822711516948	436.438881863370	930.487221703065	933.073873145057	577.275208295571	998.717160568789	754.204469381013	552.529136135575	941.093267794731	633.881950979396	619.234976440769	1031.964323582323	593.699135602540	543.378813316505	1059.572471560889	511.058327421970	555.524445700289	933.682040012843	725.807882770253	330.594760808018	815.986074231367	635.168991205155	265.760211757154	870.070396658905	540.361658748556	332.815071593978	855.037061875653	474.098673707233	342.254969274623	821.046041504829	410.678746011214	334.724926288557	722.458916499297	304.416739565482	284.098240947203	760.748234111965	190.722598373588	359.356547928678	1044.780141710014	422.736801614007	563.631245980325	990.144716623973	308.252494230961	623.058564065351	1059.855722873357	222.945487244006	571.402460988939	964.660761009799	40.306782194916	540.802656671924	1127.686633375410	111.133651633819	580.244994337836	1047.803375214330	38.720224023295	615.029318050750	1251.154332869660	72.500745886944	609.601512449692	621.173001832280	39.233715691300	403.367679038284	695.029226327324	35.242228426217	322.982716736546	779.090513491397	95.500072469890	349.048245502944	906.808414009809	41.681005442573	321.026235805529	958.912017583561	1103.754001526383	124.401616132797	1209.728434084148	1055.533684591766	154.288550454115	752.809639103627	1108.609553780885	719.506141761509	724.192774222607	849.094143581030	715.672745863712	
74	29.060285714286	940.063274135963	953.546654455851	305.058722736168	715.642592603241	998.043160243691	445.670508059613	902.506868430007	1430.128858158234	287.641091439855	990.838026188734	1357.517531403678	455.857211493701	890.685902732296	1427.369953634309	623.601945957788	888.144888094039	1487.725118633309	439.141635910071	932.663367003230	931.888250437966	579.693089040911	1001.230283693776	752.913880190073	554.337257679563	942.437527131335	632.339272611021	619.745834011839	1033.580262119735	592.500086701989	544.311432876778	1060.116227922313	509.444950353482	555.796696195704	934.853956841875	724.528707493172	332.486328227375	816.515030870208	634.497705683195	267.446076172742	869.814782529770	539.148823101222	334.534167224198	854.388643410160	472.534591888517	343.815393893478	819.266950174537	409.500669291666	336.037506025814	719.180299304711	304.788492600562	284.841858079048	755.560317125341	190.299823615780	359.735346198515	1045.033198481414	420.577270920015	563.799395245649	989.437291901546	306.392434481192	622.654065084980	1058.196306032755	220.769477816999	570.727639245342	960.729092350027	40.596033967414	539.879830484993	1125.090158597441	108.431105821685	579.050216903136	1043.690687659210	38.164993916723	614.292489146711	1247.726908412285	67.409104546070	608.443269577897	614.409680444275	39.712581583438	403.108482254849	688.388720745470	35.384033887379	322.901163666428	772.559708001409	95.558487973321	348.986857622065	900.206111114023	41.354411215382	321.002762282902	960.210579133280	1102.451714205564	127.389118618466	1211.477830082082	1056.982139960400	157.166909097542	749.451141108140	1109.231096116350	721.143947652869	718.453552956288	849.960436751534	717.304423394920	
